<svg width="48" height="48" viewBox="0 0 48 48" fill="none" xmlns="http://www.w3.org/2000/svg">
<g clip-path="url(#clip0_1825_725)">
<circle cx="24" cy="24" r="23.5" fill="#E0DEFF" stroke="#282466"/>
<path d="M17.25 20.75H30.75C30.75 20.75 32.25 20.75 32.25 22.25V32.75C32.25 32.75 32.25 34.25 30.75 34.25H17.25C17.25 34.25 15.75 34.25 15.75 32.75V22.25C15.75 22.25 15.75 20.75 17.25 20.75Z" stroke="black" stroke-linecap="round" stroke-linejoin="round"/>
<path d="M18.75 20.75V17C18.75 15.6076 19.3031 14.2723 20.2877 13.2877C21.2723 12.3031 22.6076 11.75 24 11.75C25.3924 11.75 26.7277 12.3031 27.7123 13.2877C28.6969 14.2723 29.25 15.6076 29.25 17V20.75" stroke="black" stroke-linecap="round" stroke-linejoin="round"/>
<path d="M21.75 27.5C21.75 28.0967 21.9871 28.669 22.409 29.091C22.831 29.5129 23.4033 29.75 24 29.75C24.5967 29.75 25.169 29.5129 25.591 29.091C26.0129 28.669 26.25 28.0967 26.25 27.5C26.25 26.9033 26.0129 26.331 25.591 25.909C25.169 25.4871 24.5967 25.25 24 25.25C23.4033 25.25 22.831 25.4871 22.409 25.909C21.9871 26.331 21.75 26.9033 21.75 27.5Z" stroke="black" stroke-linecap="round" stroke-linejoin="round"/>
</g>
<defs>
<clipPath id="clip0_1825_725">
<rect width="48" height="48" fill="white"/>
</clipPath>
</defs>
</svg>
