<svg width="48" height="48" viewBox="0 0 48 48" fill="none" xmlns="http://www.w3.org/2000/svg">
<g clip-path="url(#clip0_1825_727)">
<circle cx="24" cy="24" r="23.5" fill="#B3EDDC" stroke="#282466"/>
<path d="M23.8055 21.6667C25.6464 21.6667 27.1388 20.1743 27.1388 18.3333C27.1388 16.4924 25.6464 15 23.8055 15C21.9646 15 20.4722 16.4924 20.4722 18.3333C20.4722 20.1743 21.9646 21.6667 23.8055 21.6667Z" stroke="#282466" stroke-linecap="round" stroke-linejoin="round"/>
<path d="M17.8054 31H29.8054V30.2772C29.7948 29.2608 29.5268 28.2639 29.0264 27.3792C28.526 26.4947 27.8095 25.7513 26.944 25.2186C26.0784 24.686 25.092 24.3814 24.0768 24.3333C23.9863 24.3291 23.8958 24.3268 23.8054 24.3266C23.715 24.3268 23.6246 24.3291 23.5341 24.3333C22.5189 24.3814 21.5324 24.686 20.6668 25.2186C19.8013 25.7513 19.0848 26.4947 18.5844 27.3792C18.0841 28.2639 17.816 29.2608 17.8054 30.2772V31Z" stroke="#282466" stroke-linecap="round" stroke-linejoin="round"/>
<path d="M29.1392 21.6667C30.9801 21.6667 32.4725 20.1743 32.4725 18.3333C32.4725 16.4924 30.9801 15 29.1392 15" stroke="#282466" stroke-linecap="round" stroke-linejoin="round"/>
<path d="M32.4722 31H35.1388V30.2771C35.1282 29.2608 34.8602 28.2639 34.3598 27.3792C33.8594 26.4947 33.143 25.7513 32.2774 25.2186C31.7179 24.8743 31.1078 24.6253 30.4722 24.4793" stroke="#282466" stroke-linecap="round" stroke-linejoin="round"/>
<path d="M18.8608 21.6667C17.0199 21.6667 15.5275 20.1743 15.5275 18.3333C15.5275 16.4924 17.0199 15 18.8608 15" stroke="#282466" stroke-linecap="round" stroke-linejoin="round"/>
<path d="M15.5278 31H12.8612V30.2771C12.8718 29.2608 13.1398 28.2639 13.6402 27.3792C14.1406 26.4947 14.857 25.7513 15.7226 25.2186C16.2821 24.8743 16.8922 24.6253 17.5278 24.4793" stroke="#282466" stroke-linecap="round" stroke-linejoin="round"/>
</g>
<defs>
<clipPath id="clip0_1825_727">
<rect width="48" height="48" fill="white"/>
</clipPath>
</defs>
</svg>
