<svg width="24" height="23" viewBox="0 0 24 23" fill="none" xmlns="http://www.w3.org/2000/svg">
<path fill-rule="evenodd" clip-rule="evenodd" d="M4.00233 0C1.90339 0 0.201859 1.70153 0.201859 3.80047V19.0023C0.201859 21.1013 1.90339 22.8028 4.00233 22.8028L11.6953 22.8028V14.1356H8.75292V10.7568H11.6953V8.26533C11.6953 5.37479 13.4765 3.80048 16.0782 3.80048C17.3242 3.80048 18.3947 3.89259 18.7065 3.93276V6.95486L16.9032 6.95559C15.487 6.95559 15.2142 7.62204 15.2142 8.59996V10.7568H18.5878L18.1477 14.1356H15.2142V22.8028L19.2042 22.8028C21.3031 22.8028 23.0047 21.1013 23.0047 19.0023V3.80047C23.0047 1.70153 21.3031 0 19.2042 0H4.00233Z" fill="#282466"/>
</svg>
