<svg width="70" height="67" viewBox="0 0 70 67" fill="none" xmlns="http://www.w3.org/2000/svg">
<path d="M6.96848 30.7649L31.3118 14.0432H44.7981L55.655 60.2561H6.96848V30.7649Z" fill="#00B98E" stroke="#282466" stroke-linejoin="round"/>
<path d="M20.6225 30.7649L44.9658 14.0432L69.309 30.7649V60.2561H20.6225V30.7649Z" fill="#80E1C4" stroke="#282466" stroke-linejoin="round"/>
<path fill-rule="evenodd" clip-rule="evenodd" d="M44.9656 53.1222L34.481 42.4854C32.0777 40.0472 32.1083 36.1216 34.5494 33.7212C37.0999 31.213 41.2554 31.3999 43.5946 34.1062C44.2711 34.8888 44.7415 35.8271 44.9657 36.8288C45.1899 35.8271 45.6604 34.8888 46.3369 34.1062C48.6761 31.3999 52.8316 31.213 55.3821 33.7212C57.8232 36.1216 57.8538 40.0472 55.4504 42.4854L44.9659 53.1222L44.9657 53.1201L44.9656 53.1222Z" fill="#00B98E"/>
<path d="M34.481 42.4854L34.8371 42.1344L34.8371 42.1344L34.481 42.4854ZM44.9656 53.1222L44.6095 53.4732C44.7478 53.6134 44.9555 53.6595 45.1401 53.5908C45.3246 53.522 45.4517 53.3514 45.4645 53.1548L44.9656 53.1222ZM34.5494 33.7212L34.8999 34.0777L34.8999 34.0777L34.5494 33.7212ZM43.5946 34.1062L43.2164 34.4332L43.5946 34.1062ZM44.9657 36.8288L44.4778 36.938C44.5289 37.1665 44.7317 37.3288 44.9657 37.3288C45.1998 37.3288 45.4026 37.1665 45.4537 36.938L44.9657 36.8288ZM46.3369 34.1062L46.7151 34.4332L46.3369 34.1062ZM55.3821 33.7212L55.7327 33.3647L55.7327 33.3647L55.3821 33.7212ZM55.4504 42.4854L55.0944 42.1344L55.0944 42.1344L55.4504 42.4854ZM44.9659 53.1222L44.4669 53.1548C44.4798 53.3514 44.6069 53.522 44.7914 53.5908C44.976 53.6595 45.1837 53.6134 45.322 53.4732L44.9659 53.1222ZM44.9657 53.1201L45.4647 53.0874C45.4475 52.8245 45.2292 52.6201 44.9657 52.6201C44.7023 52.6201 44.484 52.8245 44.4668 53.0874L44.9657 53.1201ZM34.125 42.8364L44.6095 53.4732L45.3217 52.7712L34.8371 42.1344L34.125 42.8364ZM34.1988 33.3647C31.5607 35.9589 31.5276 40.2014 34.125 42.8364L34.8371 42.1344C32.6278 39.893 32.6559 36.2844 34.8999 34.0777L34.1988 33.3647ZM43.9729 33.7792C41.4466 30.8565 36.9572 30.6521 34.1988 33.3647L34.8999 34.0777C37.2427 31.7739 41.0642 31.9433 43.2164 34.4332L43.9729 33.7792ZM45.4537 36.7196C45.2115 35.6376 44.7035 34.6245 43.9729 33.7792L43.2164 34.4332C43.8387 35.1531 44.2716 36.0165 44.4778 36.938L45.4537 36.7196ZM45.4537 36.938C45.6599 36.0165 46.0928 35.1531 46.7151 34.4332L45.9586 33.7792C45.228 34.6245 44.72 35.6376 44.4778 36.7196L45.4537 36.938ZM46.7151 34.4332C48.8673 31.9433 52.6888 31.7739 55.0315 34.0777L55.7327 33.3647C52.9743 30.6521 48.4849 30.8565 45.9586 33.7792L46.7151 34.4332ZM55.0315 34.0777C57.2756 36.2844 57.3037 39.893 55.0944 42.1344L55.8065 42.8364C58.4039 40.2014 58.3708 35.9589 55.7327 33.3647L55.0315 34.0777ZM55.0944 42.1344L44.6098 52.7712L45.322 53.4732L55.8065 42.8364L55.0944 42.1344ZM45.4648 53.0895L45.4647 53.0874L44.4668 53.1527L44.4669 53.1548L45.4648 53.0895ZM45.4645 53.1548L45.4647 53.1527L44.4668 53.0874L44.4667 53.0895L45.4645 53.1548Z" fill="#282466"/>
<path d="M20.6223 30.7996H6.96848" stroke="#282466" stroke-linecap="round"/>
<path d="M46.0121 18.8621L65.2982 31.9524" stroke="white" stroke-linecap="round"/>
<path fill-rule="evenodd" clip-rule="evenodd" d="M1.10376 14.2004C7.2165 14.1868 12.1676 9.22726 12.1676 3.11133C12.1676 9.2278 17.1196 14.1877 23.2331 14.2004C17.1226 14.2131 12.1725 19.1682 12.1676 25.2805C12.1628 19.1687 7.21353 14.214 1.10376 14.2004Z" fill="white" stroke="#282466" stroke-linejoin="round"/>
</svg>
