<svg width="24" height="23" viewBox="0 0 24 23" fill="none" xmlns="http://www.w3.org/2000/svg">
<path fill-rule="evenodd" clip-rule="evenodd" d="M4.36791 0C2.26897 0 0.567444 1.70153 0.567444 3.80047V19.0023C0.567444 21.1013 2.26898 22.8028 4.36792 22.8028H19.5698C21.6687 22.8028 23.3703 21.1013 23.3703 19.0023V3.80047C23.3703 1.70153 21.6687 0 19.5698 0H4.36791ZM18.4229 6.46733C19.2642 6.46733 19.9463 5.78528 19.9463 4.94393C19.9463 4.10257 19.2642 3.42052 18.4229 3.42052C17.5815 3.42052 16.8994 4.10257 16.8994 4.94393C16.8994 5.78528 17.5815 6.46733 18.4229 6.46733ZM11.647 5.20431C8.04443 5.20431 5.12782 8.12409 5.12782 11.7235C5.12782 15.3262 8.0476 18.2428 11.647 18.2428C15.2497 18.2428 18.1663 15.323 18.1663 11.7235C18.1663 8.12092 15.2465 5.20431 11.647 5.20431ZM11.647 15.955C9.30847 15.955 7.41559 14.0611 7.41559 11.7235C7.41559 9.38601 9.30953 7.49207 11.647 7.49207C13.9846 7.49207 15.8785 9.38601 15.8785 11.7235C15.8796 14.0611 13.9856 15.955 11.647 15.955Z" fill="#282466"/>
</svg>
