<svg width="24" height="23" viewBox="0 0 24 23" fill="none" xmlns="http://www.w3.org/2000/svg">
<path fill-rule="evenodd" clip-rule="evenodd" d="M4.75994 0C2.661 0 0.959473 1.70153 0.959473 3.80047V19.0023C0.959473 21.1013 2.661 22.8028 4.75994 22.8028H19.9618C22.0608 22.8028 23.7623 21.1013 23.7623 19.0023V3.80047C23.7623 1.70153 22.0608 0 19.9618 0H4.75994ZM7.16145 4.55853C6.25419 4.55853 5.518 5.29472 5.518 6.20198C5.518 7.10925 6.25419 7.86083 7.16145 7.86083C8.06871 7.86083 8.8049 7.10925 8.8049 6.20198C8.80433 5.29472 8.06814 4.55853 7.16145 4.55853ZM19.1993 18.243V18.2436H16.3681V13.7951C16.3681 12.735 16.3464 11.3756 14.8928 11.3756C13.4176 11.3756 13.1918 12.5275 13.1918 13.7187V18.243H10.3576V9.10597H13.0794V10.352H13.1194C13.4974 9.63402 14.4235 8.87673 15.8035 8.87673C18.6741 8.87673 19.2028 10.7682 19.2028 13.2237V18.243H19.1993ZM8.58193 9.10684H5.74438V18.2439H8.58193V9.10684Z" fill="#282466"/>
</svg>
