<svg width="24" height="24" viewBox="0 0 24 24" fill="none" xmlns="http://www.w3.org/2000/svg">
<path fill-rule="evenodd" clip-rule="evenodd" d="M3.38244 23.2485H21.0256C22.5071 23.2485 23.7081 22.048 23.7078 20.5667V2.93008C23.7078 1.44905 22.5069 0.248535 21.0253 0.248535H3.38244C1.90089 0.248535 0.699951 1.44905 0.699951 2.93008V20.567C0.699951 22.048 1.90089 23.2485 3.38244 23.2485ZM10.4183 12.5211L4.23429 4.25537H9.00041L13.0545 9.67407L18.072 4.25537H19.4726L13.6803 10.5108L20.2123 19.2414H15.4462L11.0443 13.3576L5.59596 19.2414H4.19531L10.4183 12.5211ZM8.48353 5.28688H6.294L15.9628 18.2101H18.1523L8.48353 5.28688Z" fill="#282466"/>
</svg>
