<svg width="53" height="39" viewBox="0 0 53 39" fill="none" xmlns="http://www.w3.org/2000/svg">
<g filter="url(#filter0_d_3012_232892)">
<path d="M14.4647 1C17.0343 1 19.09 3.05568 19.09 5.52249C19.09 6.96147 18.576 8.09209 17.5482 9.01714C14.6702 11.5867 12.8201 14.0536 11.9978 16.4176C12.7173 16.1092 13.5396 16.0064 14.6702 16.0064C19.7066 16.0064 23.6124 19.9122 23.6124 25.5653C23.6124 28.5461 22.5846 31.0129 20.4261 33.1714C18.2676 35.3298 15.8009 36.3576 12.9229 36.3576C6.34474 36.3576 1 31.2185 1 23.0985C1 15.287 4.49464 8.29765 11.4839 2.13062C12.409 1.41114 13.3341 1 14.4647 1ZM40.8523 1C43.4219 1 45.4776 3.05568 45.4776 5.52249C45.4776 6.96147 44.9636 8.09209 43.9358 9.01714C41.0578 11.5867 39.2077 14.0536 38.3854 16.4176C39.1049 16.1092 39.9272 16.0064 41.0578 16.0064C46.0942 16.0064 50 19.9122 50 25.5653C50 28.5461 48.9722 31.0129 46.8137 33.1714C44.6552 35.3298 42.1885 36.3576 39.3105 36.3576C32.7323 36.3576 27.3876 31.2185 27.3876 23.0985C27.3876 15.287 30.8822 8.29765 37.8715 2.13062C38.7966 1.41114 39.7217 1 40.8523 1Z" fill="white"/>
<path d="M14.4647 1C17.0343 1 19.09 3.05568 19.09 5.52249C19.09 6.96147 18.576 8.09209 17.5482 9.01714C14.6702 11.5867 12.8201 14.0536 11.9978 16.4176C12.7173 16.1092 13.5396 16.0064 14.6702 16.0064C19.7066 16.0064 23.6124 19.9122 23.6124 25.5653C23.6124 28.5461 22.5846 31.0129 20.4261 33.1714C18.2676 35.3298 15.8009 36.3576 12.9229 36.3576C6.34474 36.3576 1 31.2185 1 23.0985C1 15.287 4.49464 8.29765 11.4839 2.13062C12.409 1.41114 13.3341 1 14.4647 1ZM40.8523 1C43.4219 1 45.4776 3.05568 45.4776 5.52249C45.4776 6.96147 44.9636 8.09209 43.9358 9.01714C41.0578 11.5867 39.2077 14.0536 38.3854 16.4176C39.1049 16.1092 39.9272 16.0064 41.0578 16.0064C46.0942 16.0064 50 19.9122 50 25.5653C50 28.5461 48.9722 31.0129 46.8137 33.1714C44.6552 35.3298 42.1885 36.3576 39.3105 36.3576C32.7323 36.3576 27.3876 31.2185 27.3876 23.0985C27.3876 15.287 30.8822 8.29765 37.8715 2.13062C38.7966 1.41114 39.7217 1 40.8523 1Z" stroke="#282466"/>
</g>
<defs>
<filter id="filter0_d_3012_232892" x="0.5" y="0.5" width="52" height="38.3577" filterUnits="userSpaceOnUse" color-interpolation-filters="sRGB">
<feFlood flood-opacity="0" result="BackgroundImageFix"/>
<feColorMatrix in="SourceAlpha" type="matrix" values="0 0 0 0 0 0 0 0 0 0 0 0 0 0 0 0 0 0 127 0" result="hardAlpha"/>
<feOffset dx="2" dy="2"/>
<feComposite in2="hardAlpha" operator="out"/>
<feColorMatrix type="matrix" values="0 0 0 0 0.156863 0 0 0 0 0.141176 0 0 0 0 0.4 0 0 0 1 0"/>
<feBlend mode="normal" in2="BackgroundImageFix" result="effect1_dropShadow_3012_232892"/>
<feBlend mode="normal" in="SourceGraphic" in2="effect1_dropShadow_3012_232892" result="shape"/>
</filter>
</defs>
</svg>
