<svg width="54" height="38" fill="none" xmlns="http://www.w3.org/2000/svg"><path d="M6.957 33.46H5.052a.92.92 0 0 0-.91.911v2.07a.92.92 0 0 0 .91.912h1.905a.92.92 0 0 0 .911-.911v-2.07a.92.92 0 0 0-.91-.912zm38.761 0h-1.905a.92.92 0 0 0-.911.911v2.07a.92.92 0 0 0 .91.912h1.906a.92.92 0 0 0 .91-.911v-2.07c-.082-.498-.413-.912-.91-.912z" fill="#829AB1"/><path d="M1.74 35.282c-.995 0-1.74-.828-1.74-1.74V1.74C0 .745.828 0 1.74 0h47.208c.994 0 1.74.828 1.74 1.74v31.803c0 .994-.83 1.74-1.74 1.74H1.739z" fill="#829AB1"/><path d="M39.589 32.135a.356.356 0 0 1-.331-.331v-5.55c0-.165.165-.33.33-.33h8.283c.166 0 .331.165.331.33v5.55a.356.356 0 0 1-.33.33h-8.283zm-2.982-1.987a2.05 2.05 0 0 1-2.07 2.07H4.224a2.05 2.05 0 0 1-2.07-2.07V5.052c0-1.16.91-2.07 2.07-2.07h30.23c1.16 0 2.07.91 2.07 2.07v25.096h.083z" fill="#829AB1"/><path d="M31.472 8.78H7.288v17.143h24.184V8.78z" fill="#829AB1"/><path opacity=".2" d="M3.975 30.727h30.81V4.307l-30.81 26.42z" fill="#829AB1"/><path d="M48.285 23.522h-8.944V2.982h8.944v20.54zm-8.779-.166h8.53V3.147h-8.53v20.21z" fill="#829AB1"/><path d="M43.896 6.377H39.34V2.9h4.556v3.478zm-4.39-.165h4.224V3.147h-4.224v3.065z" fill="#829AB1"/><path d="M48.285 6.377H43.73V2.9h4.555v3.478zm-4.39-.165h4.225V3.147h-4.224v3.065z" fill="#829AB1"/><path d="M43.896 9.69H39.34V6.212h4.556V9.69zm-4.39-.165h4.224V6.46h-4.224v3.065z" fill="#829AB1"/><path d="M48.285 9.69H43.73V6.212h4.555V9.69zm-4.39-.165h4.225V6.46h-4.224v3.065z" fill="#829AB1"/><path d="M43.896 13.003H39.34V9.525h4.556v3.478zm-4.39-.248h4.224V9.69h-4.224v3.065z" fill="#829AB1"/><path d="M48.285 13.003H43.73V9.525h4.555v3.478zm-4.39-.248h4.225V9.69h-4.224v3.065z" fill="#829AB1"/><path opacity=".5" d="M45.635 17.227c0 .911-.745 1.657-1.656 1.657a1.661 1.661 0 0 1-1.657-1.657c0-.91.745-1.656 1.657-1.656.91.082 1.656.828 1.656 1.656z" fill="#829AB1"/><path opacity=".5" d="M46.712 18.884c0 .91-.746 1.656-1.657 1.656a1.661 1.661 0 0 1-1.656-1.656c0-.911.745-1.657 1.656-1.657.911 0 1.657.746 1.657 1.657z" fill="#829AB1"/><path opacity=".5" d="M44.393 18.884c0 .91-.746 1.656-1.657 1.656a1.661 1.661 0 0 1-1.656-1.656c0-.911.745-1.657 1.656-1.657.911 0 1.657.746 1.657 1.657z" fill="#829AB1"/><path d="M9.27 33.46H7.365a.92.92 0 0 0-.911.911v2.07a.92.92 0 0 0 .91.912H9.27a.92.92 0 0 0 .91-.911v-2.07a.92.92 0 0 0-.91-.912zm38.76 0h-1.904a.92.92 0 0 0-.911.911v2.07a.92.92 0 0 0 .91.912h1.906a.92.92 0 0 0 .91-.911v-2.07c-.082-.498-.413-.912-.91-.912z" fill="#DAE2EC"/><path d="M5.052 35.282c-.994 0-1.74-.828-1.74-1.74V1.74C3.313.745 4.143 0 5.053 0h47.209C53.255 0 54 .828 54 1.74v31.803c0 .994-.828 1.74-1.74 1.74H5.053z" fill="#DAE2EC"/><path d="M39.92 30.148a2.05 2.05 0 0 1-2.07 2.07H7.537a2.05 2.05 0 0 1-2.07-2.07V5.052c0-1.16.91-2.07 2.07-2.07h30.23c1.16 0 2.07.91 2.07 2.07v25.096h.083z" fill="#fff"/><path d="M34.785 8.78H10.601v17.143h24.184V8.78z" fill="#DAE2EC"/><path fill="#fff" d="M44 18h6v4h-6zm0-11h6v4h-6z"/><path fill="#DAE2EC" d="M7 5h31v25H7z"/></svg>