<svg width="1200" height="814" fill="none" xmlns="http://www.w3.org/2000/svg"><g clip-path="url(#a)"><path opacity=".56" d="M357.779-435.414c-76.229-41.485-122.512-75.625-220.068-77.785-97.556-2.16-191.935 51.857-242.755 181.499-63.525 162.053-166.6 108.036-118.956 216.071 47.644 108.036-103.381 280.893-148.756 432.143-45.374 151.248 213.262 213.909 406.105 224.713 192.843 10.804 324.43 144.768 397.03 194.464 72.6 49.696 197.381 112.356 308.549 56.178 111.168-56.178 122.512-235.517 133.856-283.053 11.343-47.536 45.374-157.731 161.076-229.035 92.57-57.043 137.66-134.938 152.01-166.375 14.35-31.435 27.87-117.065-13.61-229.035-49.14-132.631-161.08-222.553-276.789-250.642-115.706-28.089-245.024 25.929-349.386 17.286-104.362-8.643-93.018-34.571-188.306-86.429Z" fill="#000" fill-opacity=".56"/></g><defs><clipPath id="a"><path fill="#fff" d="M0 0h1200v814H0z"/></clipPath></defs></svg>