<svg width="143" height="154" fill="none" xmlns="http://www.w3.org/2000/svg"><path fill-rule="evenodd" clip-rule="evenodd" d="M69.36 104.587c25.051 7.659 51.568-6.44 59.227-31.492 7.659-25.051-6.44-51.568-31.492-59.227-25.051-7.66-51.568 6.44-59.227 31.491-7.659 25.052 6.44 51.569 31.492 59.228Z" fill="#cffafe"/><path opacity=".328" fill-rule="evenodd" clip-rule="evenodd" d="M14.345 149.075c7.922 2.422 16.308-2.037 18.73-9.959 2.422-7.923-2.037-16.308-9.96-18.73-7.922-2.423-16.307 2.036-18.73 9.959-2.422 7.922 2.037 16.308 9.96 18.73Z" fill="#cffafe"/><path fill-rule="evenodd" clip-rule="evenodd" d="M16.976 140.468a6 6 0 1 0 3.508-11.476 6 6 0 0 0-3.508 11.476Z" fill="#cffafe"/></svg>