<svg width="375" height="518" fill="none" xmlns="http://www.w3.org/2000/svg"><path d="M30.024-92.23c-37.921-20.262-60.945-36.936-109.476-37.992-48.53-1.055-95.481 25.328-120.762 88.647-31.601 79.15-82.877 52.766-59.176 105.532 23.701 52.766-51.429 137.191-74.001 211.064-22.572 73.871 106.09 104.475 202.023 109.753 95.933 5.276 161.392 70.706 197.508 94.978 36.116 24.272 98.19 54.876 153.493 27.438 55.302-27.438 60.945-115.029 66.588-138.246 5.643-23.218 22.573-77.039 80.132-111.864 46.048-27.861 68.479-65.906 75.618-81.26 7.139-15.353 13.862-57.176-6.772-111.863C410.757-.822 355.067-44.741 297.508-58.46c-57.56-13.719-121.891 12.664-173.808 8.443-51.917-4.221-46.273-16.885-93.675-42.213Z" fill="#000" fill-opacity=".7"/></svg>