<svg width="698" height="1349" fill="none" xmlns="http://www.w3.org/2000/svg"><g clip-path="url(#a)"><path d="M1115.28 1228.69c-50.73 67.26-77.33 116.61-166.196 154.23-88.866 37.62-201.208 20.62-308.958-84.22-134.687-131.04 20.652-160.55 13.774-280.71-6.877-120.17-452.177-111.12-565.065-238.502-112.888-127.381 95.954-281.28 268.549-361.853 172.596-80.573 230.872-256.01 274.405-329.761C675.322 14.123 760.838-90.985 889.663-78.051c128.827 12.934 223.557 179.447 256.347 220.544 32.8 41.097 115.94 133.548 256.05 159.219 112.09 20.538 190.25 78.223 218.24 102.904 28 24.682 80.69 101.235 95.1 222.898C1732.46 771.626 1671.58 898 1578.18 966.9c-93.4 68.9-237.93 64.64-330.02 110.91-92.09 46.26-69.46 66.8-132.88 150.88Z" fill="#cffafe"/></g><defs><clipPath id="a"><path fill="#fff" transform="translate(-48 -207)" d="M0 0h746v1749H0z"/></clipPath></defs></svg>