<svg width="38" height="52" fill="none" xmlns="http://www.w3.org/2000/svg"><path d="m21.308 19.94-2.346 18.962h-3.617L13 19.939l-.488.098c.097-.098.097-.195 0-.293-.684-.978-1.173-2.053-.684-3.226 1.075-.88 1.954-1.173 2.639-.684-.49 1.466-.196 3.03 1.759 2.444.293-.098.586-.294.586-.587-.097-.782-.39-1.564-.88-2.15.098-.196.098-.293.196-.391.88-1.564 2.15.293 2.542.782 0 0 .097.195.195.489-.195.293-.293.586-.39.88-.392 1.074.781 1.563 1.563.977.684-.49.586-1.271.293-1.955.489-.684 1.369-.978 1.857.39.391.88.196 2.151-.39 2.933-.098.195-.098.293-.098.391l-.391-.098z" fill="#829AB1"/><path d="M34.797 17.497c0 4.3-1.564 8.21-4.105 11.24 0 0 0 .098-.098.098l-.098.098c-1.857 2.443-1.76 9.872-5.082 9.872h-4.301l2.346-18.67-.782-.097c.097 0 .195-.098.293-.196 1.173-1.563 1.075-6.157-1.955-5.082a2.33 2.33 0 0 0-1.075.586c-.098-.195-.196-.293-.293-.39-.88-1.174-2.346-1.565-3.617-.978-.39.195-.684.489-.88.782-.684-.391-1.564-.391-2.541.098-2.444 1.075-2.444 3.225-1.173 5.278h-.293l2.346 18.669H9.383c-3.323 0-3.225-7.526-5.082-9.872l-.098-.098-.098-.098C1.564 25.707 0 21.797 0 17.497 0 7.82 7.82 0 17.496 0c9.481 0 17.3 7.82 17.3 17.497zM8.6 39.977v9.97h3.715L13.585 52h7.527l1.27-2.053h3.715v-9.97H8.6z" fill="#829AB1"/><path d="M25.5 40h-9.778l-4.889-20.093L9 14.167l3.667-3.445L20.61 9l7.945 3.445L31 19.334 25.5 40z" fill="#fff"/><path d="m24.157 19.94-2.346 18.962h-3.616l-2.346-18.963-.489.098c.098-.098.098-.195 0-.293-.684-.978-1.173-2.053-.684-3.226 1.075-.88 1.955-1.173 2.639-.684-.489 1.466-.196 3.03 1.76 2.444.293-.098.586-.293.586-.587-.098-.782-.391-1.564-.88-2.15.098-.196.098-.293.196-.391.88-1.564 2.15.293 2.54.782 0 0 .099.195.196.489-.195.293-.293.586-.39.88-.392 1.075.781 1.563 1.563.977.684-.489.587-1.271.294-1.955.488-.684 1.368-.978 1.857.39.39.88.195 2.151-.391 2.933-.098.196-.098.293-.098.391l-.391-.098z" fill="#DAE2EC"/><path d="M37.646 17.496c0 4.3-1.564 8.21-4.105 11.24 0 0 0 .098-.098.098l-.097.098c-1.858 2.444-1.76 9.872-5.083 9.872h-4.3l2.345-18.669-.782-.098c.098 0 .195-.097.293-.195 1.173-1.564 1.075-6.158-1.955-5.083a2.33 2.33 0 0 0-1.075.587 1.348 1.348 0 0 0-.293-.391c-.88-1.173-2.346-1.564-3.617-.978a2.307 2.307 0 0 0-.88.782c-.683-.39-1.563-.39-2.54.098-2.444 1.075-2.444 3.226-1.174 5.278h-.293l2.346 18.67h-4.105c-3.323 0-3.226-7.527-5.083-9.873l-.098-.098-.097-.097c-2.542-3.03-4.106-6.94-4.106-11.24C2.85 7.82 10.67 0 20.346 0c9.48 0 17.3 7.82 17.3 17.496zM11.45 39.977v9.97h3.714L16.434 52h7.527l1.27-2.053h3.715v-9.97H11.449z" fill="#DAE2EC"/></svg>