<svg width="1199" height="721" fill="none" xmlns="http://www.w3.org/2000/svg"><g clip-path="url(#a)"><path d="M1793.38-159.483c62.05 68.002 112.49 107.611 119.24 204.185 6.74 96.573 42.98 109.793-140.07 184.612-228.81 93.524-269.25-20.064-460.21-1.488-156.1 9.041-350.201 406.384-564.282 479.841-214.08 73.456-313.191-171.904-335.848-361.581C389.553 156.41 193.487 50.712 119.859-12.143 46.232-74.998-47.851-187.295 28.121-308.335c75.973-121.04 331.405-165.932 398.797-186.118 67.392-20.187 223.328-74.671 320.709-203.057C825.532-800.219 934.97-859.643 979.28-879.801c44.31-20.159 165.97-49.644 327.27-29.398 191.07 23.981 323.56 118.412 367.98 228.168 44.42 109.755-27.78 248.433-11.53 350.557 16.25 102.124 52.81 85.988 130.38 170.991Z" fill="#cffafe"/></g><defs><clipPath id="a"><path fill="#fff" transform="translate(0 -91)" d="M0 0h1199v812H0z"/></clipPath></defs></svg>