<svg width="52" height="54" fill="none" xmlns="http://www.w3.org/2000/svg"><path fill="#fff" d="M42 27h6v4h-6z"/><path d="M1.89 50.111 0 47v3.889L1.89 54v-3.889z" fill="#829AB1"/><path d="M0 47h50.11L52 50.111H1.89L0 47z" fill="#829AB1"/><path fill="#DAE2EC" d="M1.891 50.111H52V54H1.891z"/><path d="m5 49-2-2h2v2z" fill="#829AB1"/><path stroke="#829AB1" stroke-width="4" d="M5 2h39v43H5z"/><path d="m24.914 1.914.1 42.522" stroke="#829AB1" stroke-width="5"/><path fill="#829AB1" d="M5 17h40v4H5z"/><path stroke="#DAE2EC" stroke-width="4" d="M7 4h39v43H7z"/><path d="m26.914 3.914.1 42.522" stroke="#DAE2EC" stroke-width="5"/><path fill="#DAE2EC" d="M7 19h40v4H7z"/><path d="m48 2-2-2v2h2z" fill="#829AB1"/></svg>