<svg width="41" height="62" fill="none" xmlns="http://www.w3.org/2000/svg"><path d="M11.631 18.676A2587.08 2587.08 0 0 1 6.771 3.3a3.489 3.489 0 0 0-4.472-2.09A3.489 3.489 0 0 0 .21 5.683s3.818 9.18 6.147 14.91C3.68 23.047 2.662 27.473 4 31.857l16.673-6.06c-1.789-4.219-5.41-6.96-9.042-7.122zm27.195 29.922c-1.872-.726-5.55-2.629-7.579-6.834-5.755-11.938-9.473-14.17-10.266-14.529l-16.3 5.924c-.357.74-1.808 4.814 1.464 17.729 1.147 4.527-.454 8.347-1.421 10.108 1.076.028 3.088-.08 6.338-.773.558-2.65.634-6.986-1.104-13.996 0 0 4.13 6.025 5.261 12.956 1.759-.498 3.76-1.13 6.02-1.924L19.5 44 27 55c1.914-.738 1.382-.49 2.846-1.153l-1.409-5.538 4.267 4.169c3.429-1.75 5.244-3.103 6.122-3.88z" fill="#829AB1"/><path d="M13.252 17.185c-1.83-5.723-4.702-14.95-4.702-14.95A3.37 3.37 0 0 0 4.224.205a3.396 3.396 0 0 0-2.02 4.348s3.694 8.925 5.947 14.494C5.56 21.435 4.576 25.738 5.87 30L22 24.109c-1.73-4.102-5.234-6.766-8.748-6.924zm27.522 31.178c-1.872-.726-5.55-2.629-7.579-6.834C27.44 29.592 23.722 27.359 22.929 27l-16.3 5.924c-.357.74-1.808 4.814 1.464 17.729C9.24 55.18 6.467 59.739 5.5 61.5c1.077.028 1.75-.046 5-.739.558-2.65 1.738-12.222 0-19.232 0 0 5.536 10.488 6.667 17.42 1.758-.498 3.76-1.13 6.019-1.925L18.5 43.5l9 11.5c1.914-.738 2.83-.726 4.294-1.388l-1.41-5.538 4.268 4.169c3.428-1.75 5.244-3.103 6.122-3.88z" fill="#DAE2EC"/></svg>