<svg width="131" height="129" fill="none" xmlns="http://www.w3.org/2000/svg"><path fill-rule="evenodd" clip-rule="evenodd" d="M52.624 104.804c25.051 7.659 51.568-6.44 59.227-31.492 7.659-25.051-6.44-51.568-31.492-59.227-25.051-7.659-51.568 6.44-59.227 31.492-7.659 25.051 6.44 51.568 31.492 59.227z" fill="#cffafe"/><g filter="url(#a)"><path fill-rule="evenodd" clip-rule="evenodd" d="M7.39 73.601c-2.487 1.608-2.426 5.265.112 6.788l49.38 29.645a19 19 0 0 0 20.3-.468l45.324-30.142c3.81-2.533 3.495-8.229-.571-10.327L69.833 42.205a15 15 0 0 0-15.025.733L7.389 73.6z" fill="#fff"/></g><rect x="35" y="35.935" width="32.903" height="38.065" rx="1" fill="#00596C"/><rect x="37.578" y="34" width="32.903" height="38.065" rx="1" fill="#3C9AAE"/><path d="m35 36.258 2.58-1.936v3.871L35 36.258zm31.613 35.807h3.226L67.581 74l-.968-1.935z" fill="#00596C"/><rect x="42.355" y="56.308" width="24.615" height="1.538" rx=".769" fill="#fff"/><rect x="42" y="40" width="14" height="2" rx="1" fill="#fff"/><rect x="42" y="43" width="14" height="2" rx="1" fill="#fff"/><rect x="42" y="46" width="14" height="2" rx="1" fill="#fff"/><rect x="42.355" y="64" width="24.615" height="1.538" rx=".769" fill="#fff"/><rect x="42.355" y="60.154" width="24.615" height="1.538" rx=".769" fill="#fff"/><circle cx="90" cy="72" r="14" fill="#00596C"/><circle cx="92" cy="71" r="14" fill="#3C9AAE"/><path d="M97.953 66.742c-.625-3.192-3.676-5.263-6.813-4.627-2.295.465-4.09 2.29-4.549 4.623-2.224.261-3.82 2.307-3.564 4.57.236 2.083 1.97 3.654 4.031 3.653h2.897c.32 0 .58-.264.58-.59a.585.585 0 0 0-.58-.589h-2.897c-1.6-.01-2.889-1.336-2.88-2.963.01-1.627 1.315-2.939 2.915-2.93a.583.583 0 0 0 .575-.524c.294-2.586 2.594-4.44 5.137-4.14 2.137.25 3.823 1.966 4.07 4.14a.617.617 0 0 0 .61.525c1.6 0 2.897 1.319 2.897 2.946 0 1.627-1.297 2.946-2.896 2.946h-2.897c-.32 0-.58.264-.58.59 0 .325.26.589.58.589h2.897c2.24-.014 4.043-1.872 4.03-4.15-.013-2.075-1.538-3.817-3.563-4.07z" fill="#fff"/><path d="M94.62 71.795c.216.233.573.24.797.014a.606.606 0 0 0 0-.846l-2.391-2.495a.548.548 0 0 0-.798 0l-2.392 2.495a.606.606 0 0 0-.014.832c.217.233.574.24.798.014l.013-.014 1.43-1.492v7.403c0 .325.252.588.564.588a.576.576 0 0 0 .563-.588v-7.403l1.43 1.492z" fill="#fff"/><defs><filter id="a" x=".563" y="37.534" width="129.622" height="82.211" filterUnits="userSpaceOnUse" color-interpolation-filters="sRGB"><feFlood flood-opacity="0" result="BackgroundImageFix"/><feColorMatrix in="SourceAlpha" values="0 0 0 0 0 0 0 0 0 0 0 0 0 0 0 0 0 0 127 0"/><feOffset dy="2"/><feGaussianBlur stdDeviation="2.5"/><feColorMatrix values="0 0 0 0 0 0 0 0 0 0.160784 0 0 0 0 0.133333 0 0 0 0.15 0"/><feBlend in2="BackgroundImageFix" result="effect1_dropShadow"/><feBlend in="SourceGraphic" in2="effect1_dropShadow" result="shape"/></filter></defs></svg>
