<svg width="131" height="129" fill="none" xmlns="http://www.w3.org/2000/svg"><path fill-rule="evenodd" clip-rule="evenodd" d="M52.624 104.804c25.051 7.659 51.568-6.44 59.227-31.492 7.659-25.051-6.44-51.568-31.492-59.227-25.051-7.659-51.568 6.44-59.227 31.492-7.659 25.051 6.44 51.568 31.492 59.227z" fill="#cffafe"/><g filter="url(#a)"><path fill-rule="evenodd" clip-rule="evenodd" d="M7.39 73.601c-2.487 1.608-2.426 5.265.112 6.788l49.38 29.645a19 19 0 0 0 20.3-.468l45.324-30.142c3.81-2.533 3.495-8.229-.571-10.327L69.833 42.205a15 15 0 0 0-15.025.733L7.389 73.6z" fill="#fff"/></g><path d="m48 74 2 1.5-.5-2-1.5.5z" fill="#C4C4C4"/><path d="m68.922 30.555-25.184 6.733a2 2 0 0 0-1.46 2.242l5.364 34.184a2 2 0 0 0 2.568 1.6l26.083-8.088a2 2 0 0 0 1.372-2.285l-6.262-32.828a2 2 0 0 0-2.481-1.558z" fill="#00596C"/><path d="m70.906 30.572-25.186 6.88a2 2 0 0 0-1.45 2.232l5.376 35.008a2 2 0 0 0 2.58 1.603l26.087-8.266a2 2 0 0 0 1.362-2.274L73.4 32.135a2 2 0 0 0-2.493-1.563z" fill="#107A92"/><path d="M69.5 44.5 52 48.692 52.53 51 70 46.5l-.5-2zm1 4.5L53 53.192l.53 2.308L71 51l-.5-2zm1 6L54 59.192l.53 2.308L72 57l-.5-2zm1 4L55 63.192l.53 2.308L73 61l-.5-2zM51 46l-1-5 5-1 1 5-5 1z" fill="#fff"/><ellipse cx="91.917" cy="49.917" rx="2.5" ry="3.5" transform="rotate(38.435 91.917 49.917)" fill="#00596C"/><ellipse cx="91.134" cy="49.296" rx="2.5" ry="3.5" transform="rotate(38.435 91.134 49.296)" fill="#107A92"/><ellipse cx="91.996" cy="64.176" rx="3.314" ry="4.639" transform="rotate(73.294 91.996 64.176)" fill="#00596C"/><ellipse cx="91.616" cy="62.907" rx="3.314" ry="4.639" transform="rotate(73.294 91.616 62.907)" fill="#107A92"/><defs><filter id="a" x=".561" y="37.534" width="129.622" height="82.211" filterUnits="userSpaceOnUse" color-interpolation-filters="sRGB"><feFlood flood-opacity="0" result="BackgroundImageFix"/><feColorMatrix in="SourceAlpha" values="0 0 0 0 0 0 0 0 0 0 0 0 0 0 0 0 0 0 127 0"/><feOffset dy="2"/><feGaussianBlur stdDeviation="2.5"/><feColorMatrix values="0 0 0 0 0 0 0 0 0 0.160784 0 0 0 0 0.133333 0 0 0 0.15 0"/><feBlend in2="BackgroundImageFix" result="effect1_dropShadow"/><feBlend in="SourceGraphic" in2="effect1_dropShadow" result="shape"/></filter></defs></svg>