<svg width="131" height="129" fill="none" xmlns="http://www.w3.org/2000/svg"><path fill-rule="evenodd" clip-rule="evenodd" d="M52.624 104.804c25.051 7.659 51.568-6.44 59.227-31.492 7.659-25.051-6.44-51.568-31.492-59.227-25.05-7.659-51.568 6.44-59.227 31.492-7.659 25.051 6.44 51.568 31.492 59.227z" fill="#cffafe"/><g filter="url(#a)"><path fill-rule="evenodd" clip-rule="evenodd" d="M7.39 73.601c-2.487 1.608-2.426 5.265.112 6.788l49.38 29.645a19 19 0 0 0 20.3-.468l45.324-30.142c3.81-2.533 3.495-8.229-.571-10.327L69.833 42.205a15 15 0 0 0-15.025.733L7.389 73.6z" fill="#fff"/></g><path fill-rule="evenodd" clip-rule="evenodd" d="M58.594 71.633s-3.118-8.01-5.21-11.68-3.47-5.794-3.47-5.794-10.145 3.324-12.22 7.988c-2.076 4.665-1.449 9.486-1.449 9.486s11.576 4.623 21.95 3.314c10.373-1.31 14.985-6.367 14.985-6.367s.206-3.683-1.146-7.87c-1.352-4.188-10.709-5.663-10.709-5.663s1.556 4.553.153 9.119c-1.402 4.565-2.884 7.467-2.884 7.467z" fill="#00596C"/><path fill-rule="evenodd" clip-rule="evenodd" d="M61.325 55.047s-1.404 2.861-4.629 2.861c-3.225 0-6.782-3.749-6.782-3.749s.873 1.354 3.07 5.208c2.196 3.855 5.685 13.404 5.685 13.404s2.546-6.633 3.141-8.92c.276-1.059.573-2.173.698-2.934.593-3.603-1.183-5.87-1.183-5.87z" fill="#107A92"/><path fill-rule="evenodd" clip-rule="evenodd" d="m56.997 53.125-.012.58s-6.547-1.398-8.259-4.827c-.643-1.287-1.41-2.269-2.149-3.217-1.23-1.577-2.388-3.06-2.78-5.696-.545-3.673 2.318-6.633 4.177-8.556.278-.288.534-.552.752-.792 1.674-1.84 8.71-1.424 8.754-1.42 3.55 0 6.554 2.053 7.596 6.497.263 1.119.16 3.06.073 4.705-.038.72-.073 1.384-.073 1.897 0 6.328-2.76 10.85-7.596 10.85-.162 0-.323-.008-.483-.021z" fill="#FAFAFA"/><path fill-rule="evenodd" clip-rule="evenodd" d="M62.492 36.008c-3.48.566-9.724-2.621-9.489-2.621 0 0-.678 3.1-2.398 3.863-3.8 1.683-3.82 8.523-3.82 8.523s-2.409-2.928-3.055-5.219c-.647-2.291-.808-6.679.961-9.443 1.77-2.765 4.177-4.363 8.312-5.133 2.516-.468 7.16.784 9.14 2.865 2.242 2.356 5.31 3.74 4.366 5.2-.543.837-.538 1.4-4.017 1.965z" fill="#00596C"/><path fill-rule="evenodd" clip-rule="evenodd" d="m50.199 50.666-.285 3.493s1.774 1.761 2.531 2.239c1.636 1.032 3.434 1.532 4.54 1.532a4.71 4.71 0 0 0 3.313-1.35c.405-.394 1.027-1.533 1.027-1.533v-3.233s-3.117 1.475-4.928 1.332c-1.81-.143-6.198-2.48-6.198-2.48z" fill="#F1F0F0"/><path d="M78 43.77c0-1.41 1.163-2.553 2.599-2.553h14.146c1.435 0 2.599 1.144 2.599 2.553v29.419c0 1.41-1.163 2.553-2.599 2.553H80.6c-1.436 0-2.599-1.144-2.599-2.553v-29.42z" fill="#00596C"/><path d="M78.866 43.68c0-.736.635-1.331 1.42-1.331h14.773c.784 0 1.419.595 1.419 1.33v26.339c0 .735-.635 1.33-1.419 1.33H80.285c-.784 0-1.419-.595-1.419-1.33V43.68z" fill="#107A92"/><path fill-rule="evenodd" clip-rule="evenodd" d="M88 74.217a1 1 0 1 0 0-2 1 1 0 0 0 0 2z" fill="#107A92"/><rect x="81.273" y="67.032" width="10.933" height=".99" rx=".232" fill="#00596C"/><rect x="81.273" y="63.121" width="12.665" height="1.723" rx=".232" fill="#00596C"/><rect x="81.273" y="46.172" width="12.665" height=".997" rx=".232" fill="#00596C"/><rect x="81.273" y="44.962" width="9.459" height=".513" rx=".232" fill="#00596C"/><rect x="81.218" y="69.013" width="12.339" height=".489" rx=".232" fill="#00596C"/><defs><filter id="a" x=".561" y="37.534" width="129.622" height="82.211" filterUnits="userSpaceOnUse" color-interpolation-filters="sRGB"><feFlood flood-opacity="0" result="BackgroundImageFix"/><feColorMatrix in="SourceAlpha" values="0 0 0 0 0 0 0 0 0 0 0 0 0 0 0 0 0 0 127 0"/><feOffset dy="2"/><feGaussianBlur stdDeviation="2.5"/><feColorMatrix values="0 0 0 0 0 0 0 0 0 0.160784 0 0 0 0 0.133333 0 0 0 0.15 0"/><feBlend in2="BackgroundImageFix" result="effect1_dropShadow"/><feBlend in="SourceGraphic" in2="effect1_dropShadow" result="shape"/></filter></defs></svg>