<svg width="131" height="128" fill="none" xmlns="http://www.w3.org/2000/svg"><path fill-rule="evenodd" clip-rule="evenodd" d="M52.624 103.804c25.051 7.659 51.568-6.44 59.227-31.492 7.659-25.051-6.44-51.568-31.492-59.227-25.05-7.659-51.568 6.44-59.227 31.492-7.659 25.051 6.44 51.568 31.492 59.227z" fill="#cffafe"/><g filter="url(#a)"><path fill-rule="evenodd" clip-rule="evenodd" d="M7.39 72.601c-2.487 1.608-2.426 5.265.112 6.788l49.38 29.645a19 19 0 0 0 20.3-.468l45.324-30.142c3.81-2.533 3.495-8.229-.571-10.327L69.833 41.205a15 15 0 0 0-15.025.733L7.389 72.6z" fill="#fff"/></g><path fill-rule="evenodd" clip-rule="evenodd" d="m90.919 58.504-.017-.272-1.763-7.172c-.035-.542.466-1.015 1.027-.883.79.184 1.637.19 2.487-.013 2.863-.696 4.62-3.548 3.872-6.325-.616-2.813-3.485-4.532-6.348-3.829a5.333 5.333 0 0 0-2.211 1.135c-.438.374-1.1.187-1.317-.31l-1.737-7.18-.112-.25a.843.843 0 0 0-1.02-.57l-7.954 1.957c-.33-.162-.54-.52-.441-.914.433-1.756-.068-3.777-1.952-5.413a2.12 2.12 0 0 0-.665-.391c-4.786-1.744-8.514 2.129-7.595 5.929a4.919 4.919 0 0 0 1.091 2.1c.277.315.228.753-.024 1.046l-8 1.97a.844.844 0 0 0-.635 1.014l1.85 7.543.047.112.01.045c.156.642.973.821 1.446.337 1.373-1.395 3.575-2.077 6.095-1.216a5.24 5.24 0 0 1 1.215.814c.802.81 1.296 1.701 1.528 2.6.206.905.18 1.924-.162 3.013a5.13 5.13 0 0 1-.7 1.283c-1.844 1.925-4.112 2.335-5.97 1.728-.644-.208-1.286.327-1.128.967l.01.045.011.123 1.826 7.546a.846.846 0 0 0 1.032.609l8.007-1.944c.359.145.603.514.503.92a4.933 4.933 0 0 0-.002 2.369c.932 3.797 6.02 5.513 9.467 1.76.176-.191.318-.417.41-.654.92-2.321.435-4.349-.756-5.705a.794.794 0 0 1-.028-1.014l7.959-1.932a.85.85 0 0 0 .644-.978z" fill="#00596C"/><path fill-rule="evenodd" clip-rule="evenodd" d="m64.736 65.18-.017-.277-1.797-7.31c-.036-.552.475-1.033 1.047-.899a5.492 5.492 0 0 0 2.533-.013c2.918-.71 4.708-3.616 3.947-6.446-.628-2.866-3.551-4.618-6.47-3.901a5.434 5.434 0 0 0-2.252 1.156c-.447.382-1.121.19-1.342-.315l-1.77-7.318-.114-.253a.859.859 0 0 0-1.04-.582l-8.105 1.994c-.336-.165-.55-.529-.45-.931.442-1.79-.069-3.85-1.99-5.516a2.16 2.16 0 0 0-.677-.399c-4.877-1.777-8.676 2.17-7.74 6.042.2.82.589 1.544 1.112 2.14.283.321.232.768-.024 1.067l-8.152 2.006a.86.86 0 0 0-.648 1.034l1.887 7.687.046.114.012.046c.158.654.99.836 1.472.343 1.4-1.421 3.643-2.116 6.212-1.239.45.218.867.496 1.238.83.817.825 1.32 1.733 1.556 2.649.21.922.184 1.96-.165 3.07a5.226 5.226 0 0 1-.714 1.308c-1.878 1.962-4.189 2.38-6.083 1.761-.655-.212-1.31.332-1.15.985l.012.046.01.125 1.861 7.69a.862.862 0 0 0 1.052.62l8.16-1.98c.365.147.614.523.512.937a5.029 5.029 0 0 0-.002 2.414c.95 3.87 6.135 5.618 9.647 1.794a2.15 2.15 0 0 0 .418-.668c.938-2.365.443-4.43-.77-5.813a.81.81 0 0 1-.029-1.033l8.11-1.968a.865.865 0 0 0 .657-.998z" fill="#107A92"/><defs><filter id="a" x=".561" y="36.534" width="129.622" height="82.211" filterUnits="userSpaceOnUse" color-interpolation-filters="sRGB"><feFlood flood-opacity="0" result="BackgroundImageFix"/><feColorMatrix in="SourceAlpha" values="0 0 0 0 0 0 0 0 0 0 0 0 0 0 0 0 0 0 127 0"/><feOffset dy="2"/><feGaussianBlur stdDeviation="2.5"/><feColorMatrix values="0 0 0 0 0 0 0 0 0 0.160784 0 0 0 0 0.133333 0 0 0 0.15 0"/><feBlend in2="BackgroundImageFix" result="effect1_dropShadow"/><feBlend in="SourceGraphic" in2="effect1_dropShadow" result="shape"/></filter></defs></svg>