<svg width="53" height="65" fill="none" xmlns="http://www.w3.org/2000/svg"><path fill="#fff" d="M41.804 29.727h5.574v3.716h-5.574z"/><path d="M50.16 23.511c0 13.111 1.003 22.938-27.086 22.938C1.672 45.875 0 38.229 0 25.117S10.952 0 25.08 0c14.128 0 25.08 10.4 25.08 23.511z" fill="#829AB1"/><path d="M52.947 23.511c0 13.111 1.003 22.938-27.087 22.938-21.401-.574-23.073-8.22-23.073-21.332S13.738 0 27.867 0c14.128 0 25.08 10.4 25.08 23.511z" fill="#DAE2EC"/><path d="m19.56 25.045 5.508 37.688" stroke="#829AB1" stroke-width="2"/><path d="M15.439 36.15c1.174 3.294 4.437 10.442 8.091 12.68" stroke="#829AB1"/><path d="M16.273 35.137c.703.94.997 1.907.057 2.61-.94.703-2.028.33-2.73-.61-.704-.94-2.755-4.764-1.815-5.467.94-.703 3.785 2.527 4.488 3.467z" fill="#fff"/><path d="m26.012 35.3-2.787 4.646" stroke="#829AB1"/><path d="m42.329 37.431-2.383 3.404" stroke="#DAE2EC"/><path d="m21.367 25.082 4.645 37.159" stroke="#829AB1" stroke-width="2"/><path d="M27.854 34.69c-.337 1.034-.955 1.76-2.13 1.376-1.175-.383-1.55-1.433-1.212-2.467.337-1.034 2.22-4.601 3.395-4.218 1.174.384.285 4.276-.053 5.31z" fill="#fff"/><path d="m40.862 25.849-8.836 37.048" stroke="#829AB1" stroke-width="2"/><path d="M33.354 41.432c-.084 2.286.168 7.419 1.846 9.663" stroke="#829AB1"/><path d="M44.995 37.88c-.696.835-1.539 1.28-2.488.489-.95-.791-.909-1.905-.212-2.74.696-.836 3.765-3.454 4.715-2.662.949.79-1.318 4.077-2.014 4.913z" fill="#fff"/><path d="m41.774 25.866-8.836 37.049" stroke="#829AB1" stroke-width="2"/><path d="M34.267 41.45c-.084 2.285.167 7.418 1.845 9.663" stroke="#829AB1"/><path d="M43.608 25.58c-.554 1.114-1.375 1.832-2.642 1.202-1.266-.63-1.516-1.881-.961-2.996.554-1.114 3.28-4.841 4.547-4.211 1.267.63-.39 4.89-.944 6.004zM35.31 40.35c.284 1.054.205 1.991-.848 2.275-1.054.283-1.865-.414-2.148-1.468-.284-1.053-.739-5.06.315-5.344 1.053-.284 2.398 3.484 2.682 4.538zM22.722 21.83c.311 1.695-.002 3.173-1.929 3.526-1.927.354-3.242-.826-3.553-2.522-.311-1.695-.384-8.09 1.543-8.443 1.927-.353 3.628 5.743 3.94 7.438z" fill="#fff"/></svg>