<svg width="51" height="47" fill="none" xmlns="http://www.w3.org/2000/svg"><path d="M23.328 2.748h-3.546v9.418h3.546V2.748z" fill="#829AB1"/><path d="M24.768 11.168h-6.315v5.319h6.315v-5.318zM47.81 23.47l-10.123.085h-10.07v-6.47H16.071v6.47h-3.878C2.034 25.165.339 31.023.339 37.34v7.534c0 .553.443.997.997.997H8.56a.993.993 0 0 0 .997-.997V37.34c0-1.884.532-3.435 2.637-3.435h35.454a.993.993 0 0 0 .997-.997v-6.094c.11-.443-.282-3.343-.836-3.343z" fill="#829AB1"/><path d="M26.762 19.145H16.348l2.105-2.88h6.315l1.994 2.88zm-7.23-15.929v3.213c0 1.108-9.86 2.105-9.86 2.105-.887 0-1.662-.886-1.662-2.105 0-.554.553-1.108.553-1.662 0-.554-.553-.886-.553-1.662C7.899 1.997 8.785 1 9.67 1c0 .11 9.861 1.108 9.861 2.216zm3.685-.136v3.214c0 1.108 9.86 2.105 9.86 2.105.887 0 1.663-.887 1.663-2.105 0-.554-.554-1.108-.554-1.662 0-.554.554-.887.554-1.662.11-1.108-.776-2.105-1.662-2.105 0 .11-9.861 1.108-9.861 2.216z" fill="#829AB1"/><path d="M23.77 6.072c0 .886-.775 1.662-1.661 1.662H20.89c-.886 0-1.662-.776-1.662-1.662v-2.66c0-.886.776-1.661 1.662-1.661h1.219c.886 0 1.662.775 1.662 1.662v2.659zm25.761 17.173H26.9l16.205 10.662h6.426V23.245z" fill="#829AB1"/><path d="M24.458 3.878h-3.545v9.418h3.545V3.878z" fill="#DAE2EC"/><path d="M25.898 12.299h-6.315v5.318H25.9v-5.318zM48.94 24.6l-10.122.086H28.747v-6.47H17.202v6.47h-3.878c-10.16 1.61-11.855 7.468-11.855 13.783v7.534c0 .554.443.997.997.997H9.69c.554 0 1.997-.443 1.997-.997v-7.534c0-1.884.208-3.435 2.313-3.435h34.778a.993.993 0 0 0 .997-.997v-6.094c.111-.443-.282-3.343-.836-3.343z" fill="#DAE2EC"/><path d="M27.892 20.276H17.478l2.105-2.881h6.315l1.994 2.88zM20.913 4.21v3.214c0 1.108-9.86 2.105-9.86 2.105-.887 0-1.663-.886-1.663-2.105 0-.554.554-1.108.554-1.662 0-.554-.554-.886-.554-1.662-.11-1.108.776-2.105 1.662-2.105 0 .11 9.86 1.108 9.86 2.216zm3.434 0v3.214c0 1.108 9.86 2.105 9.86 2.105.887 0 1.663-.886 1.663-2.105 0-.554-.554-1.108-.554-1.662 0-.554.554-.886.554-1.662.11-1.108-.776-2.105-1.662-2.105 0 .11-9.86 1.108-9.86 2.216z" fill="#DAE2EC"/><path d="M24.901 7.202c0 .886-.775 1.662-1.662 1.662H22.02c-.886 0-1.661-.776-1.661-1.662V4.543c0-.886.775-1.662 1.661-1.662h1.22c.886 0 1.661.776 1.661 1.662v2.659zm25.76 17.173H28.03l16.205 10.662h6.426V24.375z" fill="#DAE2EC"/></svg>