<svg width="46" height="46" fill="none" xmlns="http://www.w3.org/2000/svg"><path d="M30.667 7.667c1.058 0 1.916.858 1.916 1.916v8.05l9.992-6.995a.96.96 0 0 1 1.508.785v23.154a.959.959 0 0 1-1.508.785l-9.992-6.995v8.05a1.917 1.917 0 0 1-1.916 1.916H3.833a1.917 1.917 0 0 1-1.916-1.916V9.583c0-1.058.858-1.916 1.916-1.916h26.834zM28.75 11.5h-23v23h23v-23zm-13.417 3.833h3.834v5.75h5.75v3.834h-5.752l.002 5.75h-3.834l-.002-5.75H9.583v-3.834h5.75v-5.75zm24.917 1.612-7.667 5.367v1.376l7.667 5.367V16.943v.002z" fill="#00c389" fill-opacity=".6"/></svg>