<?xml version="1.0" encoding="UTF-8"?> <!-- Generator: Adobe Illustrator 25.3.1, SVG Export Plug-In . SVG Version: 6.00 Build 0) --> <svg xmlns="http://www.w3.org/2000/svg" xmlns:xlink="http://www.w3.org/1999/xlink" version="1.1" id="Layer_1" x="0px" y="0px" viewBox="0 0 100 100" style="enable-background:new 0 0 100 100;" xml:space="preserve"> <style type="text/css"> .st0{fill:#84BE31;stroke:#84BE31;stroke-width:0.5071;} </style> <g id="Group_843" transform="translate(-1168 -585.988)"> <g id="Group_677" transform="translate(22 -193)"> <g id="Group_660" transform="translate(1198.58 748.52)"> <g id="Group_842"> <path id="Path_1579" class="st0" d="M-0.7,73.6c2.7,2.3,5.6,4.3,8.7,6.1c0.7,0.3,1.6,0.3,2.3,0c3.1-1.8,6-3.8,8.7-6.1 c6.1-5.1,9-10.2,9-14.9c0-10.2-12-15.4-18.8-8.5c-6.9-6.9-18.8-1.5-18.8,8.5C-9.7,63.4-6.8,68.5-0.7,73.6z M0.1,51.8 c2.8-0.7,5.7,0.7,6.9,3.3c0.7,1.1,2.1,1.5,3.3,1c0.4-0.2,0.7-0.6,1-1c1.2-2.6,4.1-4,6.9-3.3c3.1,0.8,5.2,3.5,5.2,6.7 c0,6.4-9.3,13.3-14.1,16.2C4,71.4-4.8,64.7-4.8,58.5C-5.1,55.4-3,52.5,0.1,51.8z"></path> <path id="Path_1580" class="st0" d="M9.1,42.3c1.2,0,2.3-0.9,2.3-2.2c0,0,0-0.1,0-0.1v-2.5c0-1.3-1-2.3-2.3-2.3 c-1.3,0-2.3,1-2.3,2.3V40c0,1.2,0.9,2.3,2.2,2.3C9,42.3,9,42.3,9.1,42.3z"></path> <path id="Path_1581" class="st0" d="M-12.5,46.1c0.8,0.9,2.2,1,3.1,0.2c0.1-0.1,0.1-0.1,0.2-0.2l0,0c0.9-0.8,1-2.2,0.2-3.1 c-0.1-0.1-0.1-0.1-0.2-0.2l-1.8-1.8c-0.9-0.9-2.4-0.9-3.3,0c-0.9,0.9-0.9,2.4,0,3.3c0,0,0,0,0,0L-12.5,46.1z"></path> <path id="Path_1582" class="st0" d="M-19.4,63.4h2.5c1.3,0,2.4-1,2.5-2.3c0-1.3-1-2.4-2.3-2.5h-2.6c-1.3,0-2.3,1.1-2.3,2.5 C-21.6,62.4-20.6,63.3-19.4,63.4z"></path> <path id="Path_1583" class="st0" d="M30.6,46.1l1.8-1.8c0.9-0.9,0.9-2.4,0-3.3c-0.9-0.9-2.4-0.9-3.3,0l-1.8,1.8 c-0.9,0.8-1,2.2-0.2,3.1c0.1,0.1,0.1,0.1,0.2,0.2C28.2,46.9,29.6,46.9,30.6,46.1z"></path> <path id="Path_1584" class="st0" d="M37.4,58.7H35c-1.3,0-2.4,1-2.5,2.3c0,1.3,1,2.4,2.3,2.5l0,0h2.6c1.3,0,2.4-1,2.5-2.3 C39.8,59.8,38.8,58.7,37.4,58.7L37.4,58.7z"></path> </g> <path id="Path_1585" class="st0" d="M46.2,91.8L46.2,91.8c-2.3-3.6-7-4.7-10.8-2.6l-17,8.7c-1.5-1.5-3.5-2.4-5.7-2.4H0.2 c-0.2,0-0.4-0.4-0.6-0.6l0,0C-4,91-8.8,88.5-14,87.8c-4.5-0.4-9.1,0.4-13.2,2.2c-0.9,0.4-1.9,0.6-2.8,0.6h-2.2v-0.4 c0-3.2-2.6-5.9-5.9-5.9c0,0,0,0,0,0h-8.5c-3.2,0-5.9,2.6-5.9,5.9l0,0v27.4c0,3.2,2.6,5.9,5.9,5.9c0,0,0,0,0,0h8.5 c3.2,0,5.9-2.6,5.9-5.9l0,0v-0.4h4.5c0.3,0,0.6,0,0.8,0.2c0.2,0,5.9,1.6,6.1,1.6c1.3,0.3,2.5-0.6,2.8-1.8 c0.2-1.2-0.4-2.4-1.6-2.8l-6.1-1.6c-0.6-0.3-1.3-0.3-2-0.2h-4.5V95.3h2.4c1.5,0,3.1-0.4,4.5-1c7.9-3,14-3.4,21.9,3.9l0,0 c1.1,1.3,2.8,1.9,4.5,1.8h11.8c1.9,0,3.4,1.5,3.4,3.4c0,1.9-1.5,3.4-3.4,3.4l0,0H-6.3c-1.3,0-2.3,1-2.4,2.2 c0,1.3,1.1,2.4,2.4,2.4h19.1c4.5,0,8.1-3.6,8.1-8.1c0-0.5,0-1.1-0.2-1.6L37.5,93c1.5-1,3.6-0.6,4.6,0.9c0,0,0,0.1,0.1,0.1 c0.9,1.6,0.3,3.7-1.2,4.7l-27.4,19.5c-5.7,3.7-7.7,3-13.6,1.4c-0.8-0.2-1.8-0.6-2.8-0.8c-1.2-0.3-2.5,0.4-2.8,1.6 c-0.3,1.2,0.4,2.5,1.6,2.8c1,0.2,1.8,0.6,2.8,0.8c2.5,0.9,5.1,1.4,7.7,1.6c3.5-0.2,6.9-1.4,9.7-3.4l27.6-19.7 C47.4,100.3,48.5,95.5,46.2,91.8C46.2,91.8,46.2,91.8,46.2,91.8z M-48.1,90.4c0-0.7,0.6-1.2,1.2-1.2h8.5c0.7,0,1.2,0.6,1.2,1.2 v27.2c0,0.7-0.6,1.2-1.2,1.2h-8.5c-0.7,0-1.2-0.6-1.2-1.2V90.4z"></path> </g> </g> </g> </svg> 