<?xml version="1.0" encoding="UTF-8"?> <!-- Generator: Adobe Illustrator 25.3.1, SVG Export Plug-In . SVG Version: 6.00 Build 0) --> <svg xmlns="http://www.w3.org/2000/svg" xmlns:xlink="http://www.w3.org/1999/xlink" version="1.1" id="Layer_1" x="0px" y="0px" viewBox="0 0 100 100" style="enable-background:new 0 0 100 100;" xml:space="preserve"> <style type="text/css"> .st0{fill:#F9A11E;} </style> <g id="Group_831" transform="translate(-679 -585.988)"> <g id="Group_830" transform="translate(720.015 612.672)"> <path id="Path_1644" class="st0" d="M45.8,23.7l-2.9-2.3v13.3c-6.9,0.4-12.4,6-12.5,12.9h-47.3c-0.2-6.9-5.6-12.6-12.5-13V18.4 c6.3-0.5,11.3-5.2,12.3-11.4h45.7l-3.2-4.5h-55.7c-1.9,0-3.5,1.6-3.5,3.5v1.1h-1.4c-3.1,0-5.7,2.5-5.7,5.6v40.7 c0,3.1,2.5,5.7,5.6,5.7c0,0,0,0,0,0h71.1c3.1,0,5.7-2.5,5.7-5.6c0,0,0,0,0,0v-1.3h2.5c1.9,0,3.5-1.6,3.5-3.6V24.3 c-0.1,0-0.3,0-0.4,0C46.6,24.2,46.1,24,45.8,23.7z M-36.5,12.8c0-0.6,0.5-1.1,1.1-1.1h1.3v7.9c-0.7,0.5-1.6,0.8-2.4,1V12.8z M-36.5,25.2c0.8-0.1,1.6-0.4,2.4-0.7v17.8c-0.8-0.2-1.6-0.4-2.4-0.6L-36.5,25.2z M-35.3,54.5c-0.5,0.1-1-0.3-1.1-0.8 c0-0.1,0-0.1,0-0.2v-7.2c0.8,0.2,1.6,0.5,2.3,0.9L-34,47v1.5c0,1.9,1.6,3.5,3.5,3.5h0.2c0.2,0.8,0.4,1.6,0.4,2.4L-35.3,54.5z M-29.5,7h7.7c-0.8,3.7-3.9,6.5-7.7,6.9V7z M-29.4,39.2c4.4,0.4,7.8,4,8,8.4h-8L-29.4,39.2z M22,54.6h-47.3 c-0.1-0.8-0.2-1.6-0.3-2.4h47.9C22.1,52.9,22,53.7,22,54.6L22,54.6z M36.8,53.4c0,0.6-0.5,1.1-1.1,1.1h-9.1c0-0.8,0.2-1.6,0.4-2.4 h9.8L36.8,53.4z M42.9,47.6h-8c0.2-4.4,3.6-8,8-8.4V47.6z"></path> <path id="Path_1645" class="st0" d="M6.8,45.1c7.4,0,13.5-8,13.5-17.9S14.1,9.3,6.8,9.3s-13.5,8-13.5,17.9S-0.6,45.1,6.8,45.1z M6.8,14c4.9,0,8.9,6.2,8.9,13.4s-4.1,13.4-8.9,13.4c-4.9,0-8.9-6.2-8.9-13.4S1.9,14,6.8,14L6.8,14z"></path> <path id="Path_1646" class="st0" d="M5.6,34.3v0.9C5.6,36,6.2,36.7,7,36.7c0.8,0.1,1.5-0.5,1.5-1.3l0,0c0-0.1,0-0.1,0-0.2v-1 c1.1-0.2,2.2-0.7,3-1.5c0.7-0.7,1.1-1.7,1.1-2.7c0-0.8-0.2-1.7-0.7-2.3c-0.4-0.6-1-1-1.6-1.2c-0.8-0.3-1.6-0.6-2.4-0.7 c-0.7-0.1-1.4-0.3-2-0.6c-0.4-0.2-0.6-0.6-0.6-1c0-0.4,0.2-0.8,0.6-1c0.4-0.3,1-0.4,1.5-0.4c0.4,0,0.8,0,1.2,0.1 c0.4,0.1,0.7,0.2,1,0.4c0.2,0.1,0.4,0.2,0.6,0.3c0.2,0.1,0.4,0.2,0.6,0.3c0.1,0.1,0.3,0.1,0.5,0.1c0.3,0,0.6-0.1,0.8-0.4 c0.2-0.3,0.4-0.6,0.4-1c0-0.3-0.1-0.5-0.1-0.7c-0.1-0.2-0.3-0.4-0.5-0.5c-1.2-0.5-2.4-0.9-3.6-1.2v-0.9c0.1-0.8-0.5-1.5-1.3-1.5 s-1.5,0.5-1.5,1.3c0,0.1,0,0.1,0,0.2v1c-1.1,0.2-2.1,0.8-2.9,1.6c-0.7,0.8-1.1,1.8-1.1,2.8c-0.1,0.8,0.2,1.6,0.7,2.2 c0.4,0.6,1,1,1.7,1.2c0.8,0.3,1.6,0.6,2.4,0.8c0.6,0.2,1.1,0.3,1.4,0.4c0.3,0.1,0.6,0.2,0.8,0.4c0.2,0.2,0.3,0.4,0.3,0.7 c0,0.4-0.2,0.8-0.5,1c-0.5,0.2-1.1,0.3-1.6,0.3c-0.5,0-1.1-0.1-1.6-0.2c-0.6-0.1-1.1-0.4-1.6-0.7c-0.2-0.1-0.4-0.2-0.6-0.3 c-0.5-0.2-1-0.1-1.3,0.3c-0.2,0.3-0.3,0.7-0.3,1c0,0.2,0.1,0.5,0.1,0.7c0.1,0.2,0.3,0.4,0.5,0.5C3,33.7,4.3,34.2,5.6,34.3z"></path> <path id="Path_1647" class="st0" d="M59,3.7c-0.1-1.1-0.9-2-1.9-2.4l-8.6-2.8l-2.6-8.9c-0.3-1.1-1.2-1.9-2.3-2 c-1.1-0.2-2.2,0.3-2.8,1.2l-5.3,7.6l-9-0.1h0c-1.1,0-2.1,0.6-2.6,1.6c-0.5,1-0.4,2.2,0.2,3.1l1,1.5L28.5,7l1,1.5l-3,8.9 c-0.3,0.8-0.2,1.7,0.2,2.5c0.4,0.7,1.1,1.3,2,1.4c0.1,0,0.3,0,0.4,0c0.3,0,0.6-0.1,0.9-0.2l8.6-3l4.3,3.3l2.9,2.3 c0.4,0.3,0.8,0.5,1.3,0.6c0.1,0,0.3,0,0.4,0h0c0.7,0,1.4-0.3,1.9-0.7c0.6-0.6,1-1.4,1-2.3l0-9.4l7.4-5.4C58.6,5.9,59.1,4.8,59,3.7 z M46.4,19.2L41,15c-1-0.8-2.4-1.1-3.7-0.6l-6.5,2.3l2.4-6.9c0.4-1.2,0.2-2.5-0.5-3.5l-4.3-6l7.1,0.1h0.1c1.3,0,2.5-0.6,3.2-1.7 l4-5.7l1.9,6.7c0.4,1.2,1.3,2.2,2.5,2.6L54,4.4l-6,4.3c-1,0.7-1.6,1.9-1.6,3.1L46.4,19.2z"></path> </g> </g> </svg> 