<?xml version="1.0" encoding="UTF-8"?> <!-- Generator: Adobe Illustrator 24.0.1, SVG Export Plug-In . SVG Version: 6.00 Build 0) --> <svg xmlns="http://www.w3.org/2000/svg" xmlns:xlink="http://www.w3.org/1999/xlink" id="Layer_1" x="0px" y="0px" viewBox="0 0 100 100" style="enable-background:new 0 0 100 100;" xml:space="preserve"> <style type="text/css"> .st0{fill:#1AB2C5;} </style> <path class="st0" d="M91.8,42.7c0.8-4.1-0.6-8.4-3.7-11.3l-3.7-3.5c-1.1-1.1-2-2.3-2.7-3.7l-2.2-4.6c-1.8-3.8-5.4-6.4-9.6-7 l-5.1-0.7c-1.5-0.2-3-0.7-4.4-1.4L55.9,8C54.1,7,52,6.5,50,6.5c-2,0-4.1,0.5-5.9,1.5l-4.5,2.5c-1.4,0.7-2.8,1.2-4.4,1.4l-5.1,0.7 c-4.2,0.5-7.8,3.2-9.6,7l-2.2,4.6c-0.7,1.4-1.6,2.6-2.7,3.7l-3.7,3.5c-3.1,2.9-4.5,7.2-3.7,11.3l0.9,5c0.3,1.5,0.3,3.1,0,4.6l-0.9,5 c-0.8,4.1,0.6,8.4,3.7,11.3l3.7,3.5c1.1,1.1,2,2.3,2.7,3.7l2.2,4.6c1.8,3.8,5.4,6.4,9.6,7l5.1,0.7c1.5,0.2,3,0.7,4.4,1.4l4.5,2.5 c1.9,1,3.9,1.5,5.9,1.5c2,0,4.1-0.5,5.9-1.5l4.5-2.5c1.4-0.7,2.8-1.2,4.4-1.4l5.1-0.7c4.2-0.5,7.8-3.2,9.6-7l2.2-4.6 c0.7-1.4,1.6-2.6,2.7-3.7l3.7-3.5c3.1-2.9,4.5-7.2,3.7-11.3l-0.9-5c-0.3-1.5-0.3-3.1,0-4.6L91.8,42.7z M86.5,53.1l0.9,5 c0.5,2.7-0.4,5.4-2.4,7.3L81.4,69c-1.5,1.4-2.7,3.1-3.6,5l-2.2,4.6c-1.2,2.5-3.5,4.2-6.2,4.5l-5.1,0.7c-2.1,0.3-4.1,0.9-5.9,1.9 l-4.5,2.5c-1.2,0.6-2.5,1-3.9,1c-1.3,0-2.7-0.3-3.9-1l-4.5-2.5c-1.8-1-3.8-1.6-5.9-1.9l-5.1-0.7c-2.7-0.4-5.1-2-6.2-4.5L22.3,74 c-0.9-1.9-2.1-3.6-3.6-5l-3.7-3.5c-2-1.9-2.9-4.6-2.4-7.3l0.9-5c0.4-2.1,0.4-4.1,0-6.2l-0.9-5c-0.5-2.7,0.4-5.4,2.4-7.3l3.7-3.5 c1.5-1.4,2.7-3.1,3.6-5l2.2-4.6c1.2-2.5,3.5-4.2,6.2-4.5l5.1-0.7c2.1-0.3,4.1-0.9,5.9-1.9l4.5-2.5c1.2-0.6,2.5-1,3.9-1 c1.3,0,2.7,0.3,3.9,1l4.5,2.5c1.8,1,3.8,1.6,5.9,1.9l5.1,0.7c2.7,0.4,5.1,2,6.2,4.5l2.2,4.6c0.9,1.9,2.1,3.6,3.6,5l3.7,3.5 c2,1.9,2.9,4.6,2.4,7.3l-0.9,5C86.2,49,86.2,51,86.5,53.1z M40,65.4c0.2,0.5,0.2,0.8,0,1.1c-0.2,0.3-0.5,0.6-1.1,0.8l-7.1,2.9 c-0.2,0.1-0.5,0.1-0.7,0.1c-0.2,0-0.4,0-0.5-0.1c-0.4-0.2-0.6-0.4-0.8-0.8c-0.2-0.4-0.2-0.8-0.1-1.3l2.5-9.7l-4.3,1.7 c-0.4,0.1-0.7,0.2-0.9,0.2c-0.1,0-0.3,0-0.4-0.1c-0.3-0.1-0.6-0.4-0.8-0.8c-0.2-0.5-0.2-0.8,0-1.1c0.2-0.3,0.5-0.6,1.1-0.8l6.9-2.8 c0.2-0.1,0.4-0.1,0.7-0.1c0.2,0,0.4,0,0.5,0.1c0.4,0.2,0.6,0.4,0.8,0.8c0.2,0.4,0.2,0.9,0.1,1.3l-2.5,9.7l4.6-1.9 c0.4-0.1,0.7-0.2,0.9-0.2c0.1,0,0.2,0,0.4,0C39.6,64.7,39.8,64.9,40,65.4z M54.9,53.8c0.2,0.6,0.1,1.1-0.1,1.4 c-0.2,0.4-0.7,0.6-1.4,0.8L44,58.7c-0.2,0.1-0.4,0.1-0.7,0.1c-0.3,0-0.6-0.1-0.9-0.2c-0.4-0.2-0.7-0.6-0.9-1.1 c-0.1-0.5-0.1-1.1,0.1-1.7L46.2,44l-5.6,1.6c-0.4,0.1-0.7,0.2-1,0.2c-0.3,0-0.5,0-0.7-0.1c-0.4-0.2-0.7-0.5-0.9-1.1 c-0.2-0.6-0.1-1.1,0.1-1.4c0.3-0.4,0.7-0.6,1.4-0.8l9-2.5c0.2-0.1,0.4-0.1,0.6-0.1c0.3,0,0.6,0.1,0.8,0.2c0.4,0.2,0.7,0.6,0.9,1.1 c0.1,0.5,0.1,1.1-0.1,1.7l-4.4,11.8l6-1.7c0.4-0.1,0.7-0.2,1-0.2c0.3,0,0.5,0,0.7,0.1C54.5,52.9,54.7,53.2,54.9,53.8z M74.2,46.7 c0.1,0.7,0,1.2-0.3,1.6c-0.3,0.4-0.9,0.7-1.7,0.8l-11,2c-0.2,0-0.4,0.1-0.5,0.1c-0.5,0-0.9-0.1-1.2-0.4c-0.5-0.3-0.8-0.8-0.9-1.4 c-0.1-0.6,0-1.2,0.3-1.9l6.4-13.1l-6.7,1.2c-0.3,0.1-0.6,0.1-0.9,0.1c-0.4,0-0.8-0.1-1.1-0.2c-0.5-0.2-0.7-0.7-0.9-1.4 c-0.1-0.7,0-1.2,0.3-1.6c0.3-0.4,0.9-0.7,1.7-0.8l10.6-1.9c0.2,0,0.4,0,0.5,0c0.4,0,0.8,0.1,1.2,0.4c0.5,0.3,0.8,0.8,0.9,1.4 c0.1,0.6,0,1.3-0.3,1.9l-6.4,13.1l7.1-1.3c0.3-0.1,0.6-0.1,0.8-0.1c0.4,0,0.8,0.1,1,0.2C73.8,45.5,74.1,46,74.2,46.7z"></path> </svg> 